<svg xmlns="http://www.w3.org/2000/svg" width="1019" height="970" viewBox="0 0 1019 970">
  <defs>
    <style>
      .cls-1, .cls-3 {
        fill: #ffcd3f;
      }

      .cls-2, .cls-3, .cls-7, .cls-8 {
        fill-rule: evenodd;
      }

      .cls-4 {
        font-size: 76px;
        fill: #fffdfd;
        font-family: KozGoPr6N-Regular, "Kozuka Gothic Pr6N";
      }

      .cls-5 {
        font-size: 51px;
        font-family: Alegreya;
      }

      .cls-6 {
        font-size: 44px;
      }

      .cls-7 {
        fill: #fe1111;
      }

      .cls-8 {
        fill: #fff;
      }
    </style>
  </defs>
  <ellipse class="cls-1" cx="509.5" cy="484" rx="509.5" ry="486"/>
  <path class="cls-2" d="M102,465c-13.316-64.642-6-83-6-83s23.2,44.679,25,48,3.386,2.507,23-1c5.362-15.811,26-50,26-50s-4.152,74.877-4,101c17.644,0.22,36.127-4.753,40-9s-3.225-139.514-3-143-20.956-11.408-29-10-39.249,69.825-39,61-39.119-62.408-41-62-22.089,7.363-35,14c-5.136,9.227,8,138,8,138S105.6,477.837,102,465Z" transform="translate(-1)"/>
  <path class="cls-2" d="M283,411s-43.516-4.229-56,14c-5.563,8.424-4,16-4,16s-1.462,17.666,18,26,37-1,37-1v9l30,3s13.75-64.593,13-79-6.339-30.372-22-37-36.471-4.637-50,1-20.2,18.407-21,20,5.777,17.1,32,18c0.654,0.127,5.929-24.6,13-23s9.661,12.721,10,21A103.793,103.793,0,0,1,283,411Z" transform="translate(-1)"/>
  <path id="Shape_19_copy" data-name="Shape 19 copy" class="cls-2" d="M493,608s-43.516-4.229-56,14c-5.563,8.424-4,16-4,16s-1.462,17.666,18,26,37-1,37-1v9l30,3s13.75-64.593,13-79-6.339-30.372-22-37-36.471-4.637-50,1-20.2,18.407-21,20,5.777,17.1,32,18c0.654,0.127,5.929-24.6,13-23s9.661,12.721,10,21A103.793,103.793,0,0,1,493,608Z" transform="translate(-1)"/>
  <path class="cls-3" d="M282,428v21s-11.221,6.786-18,0,2.631-16.756,3-17S281.315,426.9,282,428Z" transform="translate(-1)"/>
  <path id="Shape_17_copy" data-name="Shape 17 copy" class="cls-3" d="M491,624v21s-11.221,6.786-18,0,2.631-16.756,3-17S490.315,622.9,491,624Z" transform="translate(-1)"/>
  <path class="cls-2" d="M563,671s36.667-1.667,42-6c-2.667-10.333-12-70-12-70s31.667,1.333,33-1,2-22,2-22H593s-0.333-25.667,5-27,6,6.667,5,9,26,6,26,6h2s4.667-16.667-3-25-16.667-16.667-40-11c-21,12-22.667,21-26,27s-5,19-5,19H545l-4,18,15,3s1.333,34.667,2,43S563,671,563,671Z" transform="translate(-1)"/>
  <path class="cls-2" d="M676,618s45,1.667,51-5,6.333-36.667,1-43-24.667-25-56-8-33.667,49.667-34,51-7.667,39,18,53,51,0,51,0,21-11,25-22c-8.667-11.333-27-12.667-28-14s-3,6-6,11-11.667,16.667-20,0C675.667,624,676,618,676,618Z" transform="translate(-1)"/>
  <path class="cls-3" d="M680,598l14,1s6.5-22.311-1-24S680.745,593.529,680,598Z" transform="translate(-1)"/>
  <path class="cls-2" d="M685,550s7.667-28,7-32c25.333-3.667,29.333,4.667,30,3s-9,29.333-14,31S690.667,552.667,685,550Z" transform="translate(-1)"/>
  <path class="cls-2" d="M342,365s32.225-9.931,44-1c-2.477,15.406-2,15-2,15s21.185-25.226,34-15c16.055,1.807,21.523,12.823,23,18s2.072,52.088-6,84c-0.3,3.418,0,3,0,3l-38-5s7.281-61.063,5-67-6.593-5.948-8-4-8.34,2.854-12,16c-1.069,17.679-1,66-1,66s-29.6,4.458-32,3-9.061-91.521-8-97S342,365,342,365Z" transform="translate(-1)"/>
  <path class="cls-2" d="M468,389l51-2s-52.968,49.6-56,55-6.264,20.467-4,22,29.154,15.573,86,16c3.723-5.4,6-15,6-15l2-18-54,6,55-56s7.616-18.808,7-25c-31.065-9.43-80.038-17.922-86-14-5.962,5.217-4.742,12.651-6,18S468,389,468,389Z" transform="translate(-1)"/>
  <path class="cls-2" d="M780,322s30.231,0.549,42,7c-3.238,19.088-10,69-10,69s30.748-35.035,36-43c14.993,10.2,24.633,21.74,26,24-5.215,6.736-35.238,36.618-43,38,5.139,5.857,41.526,34.023,44,36-3.319,4.083-7.711,15.747-30,24-14.39-12.282-34-37-34-37l2,36s-10.838,6.539-34,5c-2.626-17.072-5-72-5-72s2.2-74.447,4-79C778.48,323.077,780,322,780,322Z" transform="translate(-1)"/>
  <path class="cls-2" d="M897,366s22.605-5.787,36,0c-3.3,30.7-3,30-3,30v31s1.848,22.221,8,22,8.1-14.142,8-24-1-40-1-40l-1-12s32.517-7.8,41-6c1.507,18.989,1.483,46.646,0,53s-9.07,28.251-13,33-14.47,18.55-31,19-36.347-2.321-45-19-7.34-27.374-7-30,1-31,1-31l5-18Z" transform="translate(-1)"/>
  <text id="まんぞく_かふぇ" data-name="まんぞく  かふぇ" class="cls-4" x="263.928" y="785.145">まんぞく  かふぇ</text>
  <text id="est.2019" class="cls-5" x="57.001" y="521.787">est.<tspan class="cls-6">2019</tspan></text>
  <path class="cls-2" d="M382,580s25.23-1.73,37-7c-1.452-12.6-4.3-33.332-29-42-5.429-1.5-33.343-4.058-53,11s-29.5,46.361-30,59-3.337,47.52,16,62,45.783,12.838,53,10,34.426-2.863,40-46c-2.5-3.015-11-5-11-5s-14.741-1.209-17-1,2.7,18.23-10,26c-5.129,2.218-14.393,6.221-22-6-4.326-14.744-11.319-46.2,0-74s26.316-5.742,25-1A120.136,120.136,0,0,0,382,580Z" transform="translate(-1)"/>
  <path class="cls-7" d="M647,310s-64.193,12.676-74,76,21.242,99.2,50,108,68.674,12.325,115-34,8-125,8-125-21.473-38.687-91-41C646.744,305.613,647,310,647,310Z" transform="translate(-1)"/>
  <path class="cls-3" d="M630,387s12-41,39-38,39.333,19.667,38,42-5.667,40.667-14,52-30.333,26-53,3S631,385,630,387Z" transform="translate(-1)"/>
  <path class="cls-7" d="M683,283s5.038,9.612,22,7c12.17-28.522,19-48,19-48s2.283-9.854-6-14-13.034-4.359-19,4c-4.014,11.731-9,26-9,26Z" transform="translate(-1)"/>
  <path class="cls-8" d="M683,283L626,477s-6,19.333,6,2c12.333-30,72-188,72-188A60.387,60.387,0,0,1,683,283Z" transform="translate(-1)"/>
  <path class="cls-8" d="M758,312s0.333,8.333,19,13c-19,28-117,164-117,164s-15,18-6-4C667.333,462.333,758,312,758,312Z" transform="translate(-1)"/>
  <path class="cls-7" d="M758,313s2.616,8.971,21,12c13.948-19.865,29-41,29-41s3.953-10.672-2-15-10.217-7.126-19-2c-8.96,13.645-13,21-13,21Z" transform="translate(-1)"/>
</svg>
