<svg xmlns="http://www.w3.org/2000/svg" width="194.906" height="224.469" viewBox="0 0 194.906 224.469">
  <defs>
    <style>
      .cls-1 {
        fill: #fe1111;
      }

      .cls-1, .cls-2, .cls-3, .cls-4 {
        fill-rule: evenodd;
      }

      .cls-2 {
        fill: #ffcd3f;
      }

      .cls-3 {
        fill: #ff3e17;
      }

      .cls-4 {
        fill: #fff;
      }
    </style>
  </defs>
  <path class="cls-1" d="M68.134,71.187S15.592,81.562,7.565,133.392s17.387,81.2,40.925,88.4,56.209,10.088,94.127-27.829,6.548-102.312,6.548-102.312S131.589,59.984,74.682,58.091C67.925,67.6,68.134,71.187,68.134,71.187Z" transform="translate(-6.063 -1.75)"/>
  <path class="cls-2" d="M96.587,106.555c19.37,3.722,30.561,25.519,25,48.685s-25.779,38.931-45.149,35.21-30.562-25.518-25-48.685S77.216,102.834,96.587,106.555Z" transform="translate(-6.063 -1.75)"/>
  <path class="cls-3" d="M97.6,49.087s4.123,7.867,18.007,5.73c9.961-23.345,15.551-39.288,15.551-39.288s1.869-8.066-4.911-11.459S115.579,0.5,110.7,7.344c-3.286,9.6-7.367,21.281-7.367,21.281Z" transform="translate(-6.063 -1.75)"/>
  <path class="cls-4" d="M97.6,49.087L50.945,207.876s-4.911,15.824,4.911,1.637c10.095-24.555,58.932-153.878,58.932-153.878A49.432,49.432,0,0,1,97.6,49.087Z" transform="translate(-6.063 -1.75)"/>
  <path class="cls-4" d="M158.987,72.824s0.273,6.821,15.551,10.641C158.987,106.382,78.774,217.7,78.774,217.7S66.5,232.43,73.863,214.423C84.777,195.871,158.987,72.824,158.987,72.824Z" transform="translate(-6.063 -1.75)"/>
  <path class="cls-3" d="M158.987,73.642s2.141,7.343,17.188,9.822c11.416-16.259,23.737-33.558,23.737-33.558s3.235-8.735-1.637-12.277-8.363-5.833-15.552-1.637c-7.334,11.168-10.64,17.188-10.64,17.188Z" transform="translate(-6.063 -1.75)"/>
</svg>
